<svg xmlns="http://www.w3.org/2000/svg" style="display:none;">
  <symbol id="arrow" viewBox="0 0 18 18" fill="none" stroke="currentColor" stroke-width="1.3" stroke-linecap="round" stroke-linejoin="round">
    <path d="M3 9H15M15 9L10.5 4.5M15 9L10.5 13.5"/>
  </symbol>

  <symbol id="emblem" viewBox="0 0 18 19" fill="none" stroke="currentColor" stroke-width="1.2">
    <path d="M9 2.5V16.5M16 9.5L2 9.5M4.05078 14.4497L13.9503 4.55021M13.9492 14.45L4.04972 4.55046"/>
  </symbol>

  <symbol id="pin" viewBox="0 0 18 19" fill="none" stroke="currentColor" stroke-width="1.3" stroke-linecap="round" stroke-linejoin="round">
    <path d="M12 9.65583C14.6489 10.1766 16.5 11.366 16.5 12.75C16.5 14.614 13.1421 16.125 9 16.125C4.85786 16.125 1.5 14.614 1.5 12.75C1.5 11.366 3.35114 10.1766 6 9.65583M9 12.375V1.875L12.9883 4.32933C13.2792 4.50836 13.4247 4.59787 13.4711 4.71064C13.5115 4.809 13.5083 4.91992 13.4623 5.01579C13.4094 5.12569 13.259 5.20667 12.9583 5.36861L9 7.5"/>
  </symbol>
</svg>